<mxfile host="app.diagrams.net" agent="Mozilla/5.0 (Windows NT 10.0; Win64; x64) AppleWebKit/537.36 (KHTML, like Gecko) Chrome/130.0.0.0 Safari/537.36 Edg/130.0.0.0" version="24.8.2">
  <diagram name="ページ1" id="reqYG7FTRviJvczHSfPr">
    <mxGraphModel dx="1042" dy="627" grid="1" gridSize="10" guides="1" tooltips="1" connect="1" arrows="1" fold="1" page="1" pageScale="1" pageWidth="827" pageHeight="1169" math="0" shadow="0">
      <root>
        <mxCell id="0" />
        <mxCell id="1" parent="0" />
        <mxCell id="MnZCUGDg8ahDTnEChyv2-1" value="" style="rounded=1;whiteSpace=wrap;html=1;" parent="1" vertex="1">
          <mxGeometry x="290" y="310" width="120" height="60" as="geometry" />
        </mxCell>
        <mxCell id="G-E8W-B7gXttlUVs6QW3-3" style="edgeStyle=orthogonalEdgeStyle;rounded=0;orthogonalLoop=1;jettySize=auto;html=1;entryX=0.5;entryY=0;entryDx=0;entryDy=0;" edge="1" parent="1" source="MnZCUGDg8ahDTnEChyv2-2" target="G-E8W-B7gXttlUVs6QW3-1">
          <mxGeometry relative="1" as="geometry" />
        </mxCell>
        <mxCell id="MnZCUGDg8ahDTnEChyv2-2" value="ユーザー入力を&lt;div&gt;求める&lt;/div&gt;" style="rounded=1;whiteSpace=wrap;html=1;" parent="1" vertex="1">
          <mxGeometry x="290" y="310" width="120" height="60" as="geometry" />
        </mxCell>
        <mxCell id="MnZCUGDg8ahDTnEChyv2-4" value="" style="edgeStyle=orthogonalEdgeStyle;rounded=0;orthogonalLoop=1;jettySize=auto;html=1;" parent="1" source="MnZCUGDg8ahDTnEChyv2-3" target="MnZCUGDg8ahDTnEChyv2-2" edge="1">
          <mxGeometry relative="1" as="geometry" />
        </mxCell>
        <mxCell id="G-E8W-B7gXttlUVs6QW3-6" style="edgeStyle=orthogonalEdgeStyle;rounded=0;orthogonalLoop=1;jettySize=auto;html=1;entryX=0;entryY=0.5;entryDx=0;entryDy=0;" edge="1" parent="1" source="MnZCUGDg8ahDTnEChyv2-3" target="G-E8W-B7gXttlUVs6QW3-1">
          <mxGeometry relative="1" as="geometry">
            <Array as="points">
              <mxPoint x="350" y="280" />
              <mxPoint x="190" y="280" />
              <mxPoint x="190" y="450" />
            </Array>
          </mxGeometry>
        </mxCell>
        <mxCell id="MnZCUGDg8ahDTnEChyv2-3" value="ランダムな値を生成" style="rounded=1;whiteSpace=wrap;html=1;" parent="1" vertex="1">
          <mxGeometry x="290" y="200" width="120" height="60" as="geometry" />
        </mxCell>
        <mxCell id="G-E8W-B7gXttlUVs6QW3-8" value="" style="edgeStyle=orthogonalEdgeStyle;rounded=0;orthogonalLoop=1;jettySize=auto;html=1;" edge="1" parent="1" source="MnZCUGDg8ahDTnEChyv2-5" target="MnZCUGDg8ahDTnEChyv2-9">
          <mxGeometry relative="1" as="geometry" />
        </mxCell>
        <mxCell id="G-E8W-B7gXttlUVs6QW3-9" value="一致する" style="edgeLabel;html=1;align=center;verticalAlign=middle;resizable=0;points=[];" vertex="1" connectable="0" parent="G-E8W-B7gXttlUVs6QW3-8">
          <mxGeometry x="-0.23" y="2" relative="1" as="geometry">
            <mxPoint as="offset" />
          </mxGeometry>
        </mxCell>
        <mxCell id="G-E8W-B7gXttlUVs6QW3-10" value="" style="edgeStyle=orthogonalEdgeStyle;rounded=0;orthogonalLoop=1;jettySize=auto;html=1;" edge="1" parent="1" source="MnZCUGDg8ahDTnEChyv2-5" target="G-E8W-B7gXttlUVs6QW3-7">
          <mxGeometry relative="1" as="geometry" />
        </mxCell>
        <mxCell id="MnZCUGDg8ahDTnEChyv2-5" value="ユーザー&lt;div&gt;入力と比較&lt;/div&gt;" style="rhombus;whiteSpace=wrap;html=1;" parent="1" vertex="1">
          <mxGeometry x="310" y="540" width="80" height="80" as="geometry" />
        </mxCell>
        <mxCell id="MnZCUGDg8ahDTnEChyv2-9" value="&quot;正解！&quot; と表示" style="rounded=1;whiteSpace=wrap;html=1;" parent="1" vertex="1">
          <mxGeometry x="470" y="550" width="120" height="60" as="geometry" />
        </mxCell>
        <mxCell id="MnZCUGDg8ahDTnEChyv2-13" style="edgeStyle=orthogonalEdgeStyle;rounded=0;orthogonalLoop=1;jettySize=auto;html=1;entryX=0;entryY=0.5;entryDx=0;entryDy=0;" parent="1" source="MnZCUGDg8ahDTnEChyv2-12" target="MnZCUGDg8ahDTnEChyv2-3" edge="1">
          <mxGeometry relative="1" as="geometry">
            <Array as="points">
              <mxPoint x="190" y="230" />
            </Array>
          </mxGeometry>
        </mxCell>
        <mxCell id="MnZCUGDg8ahDTnEChyv2-12" value="最大値と最小値を&lt;div&gt;設定&lt;/div&gt;" style="rounded=1;whiteSpace=wrap;html=1;" parent="1" vertex="1">
          <mxGeometry x="130" y="120" width="120" height="60" as="geometry" />
        </mxCell>
        <mxCell id="MnZCUGDg8ahDTnEChyv2-15" style="edgeStyle=orthogonalEdgeStyle;rounded=0;orthogonalLoop=1;jettySize=auto;html=1;entryX=1;entryY=0.5;entryDx=0;entryDy=0;" parent="1" source="MnZCUGDg8ahDTnEChyv2-14" target="MnZCUGDg8ahDTnEChyv2-3" edge="1">
          <mxGeometry relative="1" as="geometry">
            <Array as="points">
              <mxPoint x="510" y="230" />
            </Array>
          </mxGeometry>
        </mxCell>
        <mxCell id="MnZCUGDg8ahDTnEChyv2-14" value="シード値を時間依存で設定" style="rounded=1;whiteSpace=wrap;html=1;" parent="1" vertex="1">
          <mxGeometry x="450" y="120" width="120" height="60" as="geometry" />
        </mxCell>
        <mxCell id="G-E8W-B7gXttlUVs6QW3-5" style="edgeStyle=orthogonalEdgeStyle;rounded=0;orthogonalLoop=1;jettySize=auto;html=1;entryX=0.5;entryY=0;entryDx=0;entryDy=0;" edge="1" parent="1" source="G-E8W-B7gXttlUVs6QW3-1" target="MnZCUGDg8ahDTnEChyv2-5">
          <mxGeometry relative="1" as="geometry" />
        </mxCell>
        <mxCell id="G-E8W-B7gXttlUVs6QW3-1" value="ユーザー入力と&lt;div&gt;ランダムな値の差を求める&lt;/div&gt;" style="rounded=1;whiteSpace=wrap;html=1;" vertex="1" parent="1">
          <mxGeometry x="290" y="430" width="120" height="60" as="geometry" />
        </mxCell>
        <mxCell id="G-E8W-B7gXttlUVs6QW3-12" value="" style="edgeStyle=orthogonalEdgeStyle;rounded=0;orthogonalLoop=1;jettySize=auto;html=1;" edge="1" parent="1" source="G-E8W-B7gXttlUVs6QW3-7" target="G-E8W-B7gXttlUVs6QW3-11">
          <mxGeometry relative="1" as="geometry" />
        </mxCell>
        <mxCell id="G-E8W-B7gXttlUVs6QW3-19" value="一致" style="edgeLabel;html=1;align=center;verticalAlign=middle;resizable=0;points=[];" vertex="1" connectable="0" parent="G-E8W-B7gXttlUVs6QW3-12">
          <mxGeometry x="-0.255" y="1" relative="1" as="geometry">
            <mxPoint as="offset" />
          </mxGeometry>
        </mxCell>
        <mxCell id="G-E8W-B7gXttlUVs6QW3-14" value="" style="edgeStyle=orthogonalEdgeStyle;rounded=0;orthogonalLoop=1;jettySize=auto;html=1;" edge="1" parent="1" source="G-E8W-B7gXttlUVs6QW3-7" target="G-E8W-B7gXttlUVs6QW3-13">
          <mxGeometry relative="1" as="geometry" />
        </mxCell>
        <mxCell id="G-E8W-B7gXttlUVs6QW3-7" value="差が5以下" style="rhombus;whiteSpace=wrap;html=1;" vertex="1" parent="1">
          <mxGeometry x="310" y="670" width="80" height="80" as="geometry" />
        </mxCell>
        <mxCell id="G-E8W-B7gXttlUVs6QW3-11" value="&quot;とても惜しい！&quot;&lt;div&gt;と表示&lt;/div&gt;" style="rounded=1;whiteSpace=wrap;html=1;" vertex="1" parent="1">
          <mxGeometry x="470" y="680" width="120" height="60" as="geometry" />
        </mxCell>
        <mxCell id="G-E8W-B7gXttlUVs6QW3-16" value="" style="edgeStyle=orthogonalEdgeStyle;rounded=0;orthogonalLoop=1;jettySize=auto;html=1;" edge="1" parent="1" source="G-E8W-B7gXttlUVs6QW3-13" target="G-E8W-B7gXttlUVs6QW3-15">
          <mxGeometry relative="1" as="geometry" />
        </mxCell>
        <mxCell id="G-E8W-B7gXttlUVs6QW3-18" value="一致" style="edgeLabel;html=1;align=center;verticalAlign=middle;resizable=0;points=[];" vertex="1" connectable="0" parent="G-E8W-B7gXttlUVs6QW3-16">
          <mxGeometry x="-0.23" y="-2" relative="1" as="geometry">
            <mxPoint as="offset" />
          </mxGeometry>
        </mxCell>
        <mxCell id="G-E8W-B7gXttlUVs6QW3-22" value="" style="edgeStyle=orthogonalEdgeStyle;rounded=0;orthogonalLoop=1;jettySize=auto;html=1;" edge="1" parent="1" source="G-E8W-B7gXttlUVs6QW3-13" target="G-E8W-B7gXttlUVs6QW3-21">
          <mxGeometry relative="1" as="geometry" />
        </mxCell>
        <mxCell id="G-E8W-B7gXttlUVs6QW3-13" value="差が10以下" style="rhombus;whiteSpace=wrap;html=1;" vertex="1" parent="1">
          <mxGeometry x="310" y="800" width="80" height="80" as="geometry" />
        </mxCell>
        <mxCell id="G-E8W-B7gXttlUVs6QW3-15" value="&quot;惜しい！&quot; と表示" style="rounded=1;whiteSpace=wrap;html=1;" vertex="1" parent="1">
          <mxGeometry x="470" y="810" width="120" height="60" as="geometry" />
        </mxCell>
        <mxCell id="G-E8W-B7gXttlUVs6QW3-21" value="&quot;残念！&quot; と表示" style="rounded=1;whiteSpace=wrap;html=1;" vertex="1" parent="1">
          <mxGeometry x="290" y="930" width="120" height="60" as="geometry" />
        </mxCell>
      </root>
    </mxGraphModel>
  </diagram>
</mxfile>
